<mxfile host="app.diagrams.net" modified="2022-03-28T07:16:17.375Z" agent="5.0 (Macintosh; Intel Mac OS X 10_15_7) AppleWebKit/537.36 (KHTML, like Gecko) Chrome/98.0.4758.102 Safari/537.36" etag="wapLTgjpszDLtW3lTWMc" version="17.2.2" type="github">
  <diagram id="C5RBs43oDa-KdzZeNtuy" name="Page-1">
    <mxGraphModel dx="946" dy="646" grid="1" gridSize="10" guides="1" tooltips="1" connect="1" arrows="1" fold="1" page="1" pageScale="1" pageWidth="827" pageHeight="1169" math="0" shadow="0">
      <root>
        <mxCell id="WIyWlLk6GJQsqaUBKTNV-0" />
        <mxCell id="WIyWlLk6GJQsqaUBKTNV-1" parent="WIyWlLk6GJQsqaUBKTNV-0" />
        <mxCell id="6c3UcR52rL2qMj75YQcJ-1" value="" style="rounded=1;whiteSpace=wrap;html=1;fillColor=#d5e8d4;strokeColor=#82b366;" vertex="1" parent="WIyWlLk6GJQsqaUBKTNV-1">
          <mxGeometry x="310" y="445" width="420" height="270" as="geometry" />
        </mxCell>
        <mxCell id="6c3UcR52rL2qMj75YQcJ-5" value="" style="edgeStyle=orthogonalEdgeStyle;rounded=0;orthogonalLoop=1;jettySize=auto;html=1;" edge="1" parent="WIyWlLk6GJQsqaUBKTNV-1" source="6c3UcR52rL2qMj75YQcJ-2" target="6c3UcR52rL2qMj75YQcJ-4">
          <mxGeometry relative="1" as="geometry" />
        </mxCell>
        <mxCell id="6c3UcR52rL2qMj75YQcJ-2" value="定时Reload任务&lt;br&gt;5分钟" style="rounded=1;whiteSpace=wrap;html=1;" vertex="1" parent="WIyWlLk6GJQsqaUBKTNV-1">
          <mxGeometry x="80" y="120" width="120" height="60" as="geometry" />
        </mxCell>
        <mxCell id="6c3UcR52rL2qMj75YQcJ-8" value="" style="edgeStyle=orthogonalEdgeStyle;rounded=0;orthogonalLoop=1;jettySize=auto;html=1;" edge="1" parent="WIyWlLk6GJQsqaUBKTNV-1" source="6c3UcR52rL2qMj75YQcJ-4" target="6c3UcR52rL2qMj75YQcJ-7">
          <mxGeometry relative="1" as="geometry" />
        </mxCell>
        <mxCell id="6c3UcR52rL2qMj75YQcJ-4" value="返回AdTables&amp;nbsp; &amp;nbsp;impl LoadContentHandler" style="rounded=1;whiteSpace=wrap;html=1;" vertex="1" parent="WIyWlLk6GJQsqaUBKTNV-1">
          <mxGeometry x="80" y="270" width="120" height="60" as="geometry" />
        </mxCell>
        <mxCell id="6c3UcR52rL2qMj75YQcJ-6" value="内存" style="text;html=1;resizable=0;autosize=1;align=center;verticalAlign=middle;points=[];fillColor=none;strokeColor=none;rounded=0;" vertex="1" parent="WIyWlLk6GJQsqaUBKTNV-1">
          <mxGeometry x="476" y="465" width="40" height="20" as="geometry" />
        </mxCell>
        <mxCell id="6c3UcR52rL2qMj75YQcJ-10" value="" style="edgeStyle=orthogonalEdgeStyle;rounded=0;orthogonalLoop=1;jettySize=auto;html=1;" edge="1" parent="WIyWlLk6GJQsqaUBKTNV-1" source="6c3UcR52rL2qMj75YQcJ-7" target="6c3UcR52rL2qMj75YQcJ-9">
          <mxGeometry relative="1" as="geometry" />
        </mxCell>
        <mxCell id="6c3UcR52rL2qMj75YQcJ-7" value="handler.loadConfig" style="whiteSpace=wrap;html=1;rounded=1;" vertex="1" parent="WIyWlLk6GJQsqaUBKTNV-1">
          <mxGeometry x="80" y="410" width="120" height="60" as="geometry" />
        </mxCell>
        <mxCell id="6c3UcR52rL2qMj75YQcJ-9" value="从缓存中加载单元、创意、计划、实验信息放入到内存中" style="whiteSpace=wrap;html=1;rounded=1;" vertex="1" parent="WIyWlLk6GJQsqaUBKTNV-1">
          <mxGeometry x="80" y="550" width="120" height="60" as="geometry" />
        </mxCell>
        <mxCell id="6c3UcR52rL2qMj75YQcJ-11" value="计划列表" style="rounded=1;whiteSpace=wrap;html=1;" vertex="1" parent="WIyWlLk6GJQsqaUBKTNV-1">
          <mxGeometry x="356" y="525" width="120" height="60" as="geometry" />
        </mxCell>
        <mxCell id="6c3UcR52rL2qMj75YQcJ-12" value="单元列表" style="rounded=1;whiteSpace=wrap;html=1;" vertex="1" parent="WIyWlLk6GJQsqaUBKTNV-1">
          <mxGeometry x="526" y="525" width="120" height="60" as="geometry" />
        </mxCell>
        <mxCell id="6c3UcR52rL2qMj75YQcJ-13" value="创意列表" style="rounded=1;whiteSpace=wrap;html=1;" vertex="1" parent="WIyWlLk6GJQsqaUBKTNV-1">
          <mxGeometry x="356" y="615" width="120" height="60" as="geometry" />
        </mxCell>
        <mxCell id="6c3UcR52rL2qMj75YQcJ-14" value="实验列表" style="rounded=1;whiteSpace=wrap;html=1;" vertex="1" parent="WIyWlLk6GJQsqaUBKTNV-1">
          <mxGeometry x="526" y="615" width="120" height="60" as="geometry" />
        </mxCell>
        <mxCell id="6c3UcR52rL2qMj75YQcJ-17" value="" style="shape=flexArrow;endArrow=classic;html=1;rounded=0;entryX=0;entryY=0.5;entryDx=0;entryDy=0;exitX=1;exitY=0.5;exitDx=0;exitDy=0;" edge="1" parent="WIyWlLk6GJQsqaUBKTNV-1" source="6c3UcR52rL2qMj75YQcJ-9" target="6c3UcR52rL2qMj75YQcJ-1">
          <mxGeometry width="50" height="50" relative="1" as="geometry">
            <mxPoint x="210" y="610" as="sourcePoint" />
            <mxPoint x="260" y="560" as="targetPoint" />
          </mxGeometry>
        </mxCell>
        <mxCell id="6c3UcR52rL2qMj75YQcJ-18" value="" style="endArrow=classic;html=1;rounded=0;exitX=0.5;exitY=0;exitDx=0;exitDy=0;entryX=0.55;entryY=0.95;entryDx=0;entryDy=0;entryPerimeter=0;" edge="1" parent="WIyWlLk6GJQsqaUBKTNV-1" source="6c3UcR52rL2qMj75YQcJ-1" target="6c3UcR52rL2qMj75YQcJ-19">
          <mxGeometry width="50" height="50" relative="1" as="geometry">
            <mxPoint x="500" y="420" as="sourcePoint" />
            <mxPoint x="520" y="340" as="targetPoint" />
          </mxGeometry>
        </mxCell>
        <mxCell id="6c3UcR52rL2qMj75YQcJ-19" value="上层通过AdTable&lt;br&gt;读取个集合" style="ellipse;shape=cloud;whiteSpace=wrap;html=1;" vertex="1" parent="WIyWlLk6GJQsqaUBKTNV-1">
          <mxGeometry x="460" y="230" width="120" height="80" as="geometry" />
        </mxCell>
      </root>
    </mxGraphModel>
  </diagram>
</mxfile>
